<svg width="24" height="24" viewBox="0 0 24 24" fill="none" xmlns="http://www.w3.org/2000/svg">
<path d="M11.25 22.5C10.2109 22.5 9.21094 22.3672 8.25 22.1016C7.29688 21.8359 6.40234 21.4609 5.56641 20.9766C4.73047 20.4844 3.96875 19.8984 3.28125 19.2188C2.60156 18.5312 2.01562 17.7695 1.52344 16.9336C1.03906 16.0977 0.664062 15.2031 0.398438 14.25C0.132812 13.2891 0 12.2891 0 11.25C0 10.2109 0.132812 9.21484 0.398438 8.26172C0.664062 7.30078 1.03906 6.40234 1.52344 5.56641C2.01562 4.73047 2.60156 3.97266 3.28125 3.29297C3.96875 2.60547 4.73047 2.01953 5.56641 1.53516C6.40234 1.04297 7.29688 0.664063 8.25 0.398438C9.21094 0.132812 10.2109 0 11.25 0C12.2891 0 13.2852 0.132812 14.2383 0.398438C15.1992 0.664063 16.0977 1.04297 16.9336 1.53516C17.7695 2.01953 18.5273 2.60547 19.207 3.29297C19.8945 3.97266 20.4805 4.73047 20.9648 5.56641C21.457 6.40234 21.8359 7.30078 22.1016 8.26172C22.3672 9.21484 22.5 10.2109 22.5 11.25C22.5 12.2891 22.3672 13.2891 22.1016 14.25C21.8359 15.2031 21.457 16.0977 20.9648 16.9336C20.4805 17.7695 19.8945 18.5312 19.207 19.2188C18.5273 19.8984 17.7695 20.4844 16.9336 20.9766C16.0977 21.4609 15.1992 21.8359 14.2383 22.1016C13.2852 22.3672 12.2891 22.5 11.25 22.5ZM11.25 1.5C10.3516 1.5 9.48828 1.61719 8.66016 1.85156C7.83203 2.08594 7.05469 2.41406 6.32812 2.83594C5.60938 3.25781 4.95312 3.76562 4.35938 4.35938C3.76562 4.95313 3.25781 5.61328 2.83594 6.33984C2.41406 7.05859 2.08594 7.83594 1.85156 8.67188C1.61719 9.5 1.5 10.3594 1.5 11.25C1.5 12.1406 1.61719 13.0039 1.85156 13.8398C2.08594 14.668 2.41406 15.4453 2.83594 16.1719C3.25781 16.8906 3.76562 17.5469 4.35938 18.1406C4.95312 18.7344 5.60938 19.2422 6.32812 19.6641C7.05469 20.0859 7.83203 20.4141 8.66016 20.6484C9.48828 20.8828 10.3516 21 11.25 21C12.1406 21 13 20.8828 13.8281 20.6484C14.6641 20.4141 15.4414 20.0859 16.1602 19.6641C16.8867 19.2422 17.5469 18.7344 18.1406 18.1406C18.7344 17.5469 19.2422 16.8906 19.6641 16.1719C20.0859 15.4453 20.4141 14.668 20.6484 13.8398C20.8828 13.0117 21 12.1484 21 11.25C21 10.3594 20.8828 9.5 20.6484 8.67188C20.4141 7.83594 20.0859 7.05859 19.6641 6.33984C19.2422 5.61328 18.7344 4.95313 18.1406 4.35938C17.5469 3.76562 16.8867 3.25781 16.1602 2.83594C15.4414 2.41406 14.6641 2.08594 13.8281 1.85156C13 1.61719 12.1406 1.5 11.25 1.5ZM10.5 9H12V16.5H10.5V9ZM10.5 6H12V7.5H10.5V6Z" fill="black"/>
</svg>
