<svg width="24" height="24" viewBox="0 0 24 24" fill="none" xmlns="http://www.w3.org/2000/svg">
<path d="M3 10.5C3.21094 10.5 3.40625 10.5391 3.58594 10.6172C3.76562 10.6953 3.92188 10.8047 4.05469 10.9453C4.19531 11.0781 4.30469 11.2344 4.38281 11.4141C4.46094 11.5938 4.5 11.7891 4.5 12C4.5 12.2109 4.46094 12.4062 4.38281 12.5859C4.30469 12.7656 4.19531 12.9258 4.05469 13.0664C3.92188 13.1992 3.76562 13.3047 3.58594 13.3828C3.40625 13.4609 3.21094 13.5 3 13.5C2.78906 13.5 2.59375 13.4609 2.41406 13.3828C2.23438 13.3047 2.07422 13.1992 1.93359 13.0664C1.80078 12.9258 1.69531 12.7656 1.61719 12.5859C1.53906 12.4062 1.5 12.2109 1.5 12C1.5 11.7891 1.53906 11.5938 1.61719 11.4141C1.69531 11.2344 1.80078 11.0781 1.93359 10.9453C2.07422 10.8047 2.23438 10.6953 2.41406 10.6172C2.59375 10.5391 2.78906 10.5 3 10.5ZM12 10.5C12.2109 10.5 12.4062 10.5391 12.5859 10.6172C12.7656 10.6953 12.9219 10.8047 13.0547 10.9453C13.1953 11.0781 13.3047 11.2344 13.3828 11.4141C13.4609 11.5938 13.5 11.7891 13.5 12C13.5 12.2109 13.4609 12.4062 13.3828 12.5859C13.3047 12.7656 13.1953 12.9258 13.0547 13.0664C12.9219 13.1992 12.7656 13.3047 12.5859 13.3828C12.4062 13.4609 12.2109 13.5 12 13.5C11.7891 13.5 11.5938 13.4609 11.4141 13.3828C11.2344 13.3047 11.0742 13.1992 10.9336 13.0664C10.8008 12.9258 10.6953 12.7656 10.6172 12.5859C10.5391 12.4062 10.5 12.2109 10.5 12C10.5 11.7891 10.5391 11.5938 10.6172 11.4141C10.6953 11.2344 10.8008 11.0781 10.9336 10.9453C11.0742 10.8047 11.2344 10.6953 11.4141 10.6172C11.5938 10.5391 11.7891 10.5 12 10.5ZM21 10.5C21.2109 10.5 21.4062 10.5391 21.5859 10.6172C21.7656 10.6953 21.9219 10.8047 22.0547 10.9453C22.1953 11.0781 22.3047 11.2344 22.3828 11.4141C22.4609 11.5938 22.5 11.7891 22.5 12C22.5 12.2109 22.4609 12.4062 22.3828 12.5859C22.3047 12.7656 22.1953 12.9258 22.0547 13.0664C21.9219 13.1992 21.7656 13.3047 21.5859 13.3828C21.4062 13.4609 21.2109 13.5 21 13.5C20.7891 13.5 20.5938 13.4609 20.4141 13.3828C20.2344 13.3047 20.0742 13.1992 19.9336 13.0664C19.8008 12.9258 19.6953 12.7656 19.6172 12.5859C19.5391 12.4062 19.5 12.2109 19.5 12C19.5 11.7891 19.5391 11.5938 19.6172 11.4141C19.6953 11.2344 19.8008 11.0781 19.9336 10.9453C20.0742 10.8047 20.2344 10.6953 20.4141 10.6172C20.5938 10.5391 20.7891 10.5 21 10.5Z" fill="black"/>
</svg>
